<svg aria-hidden="true" xmlns="http://www.w3.org/2000/svg" xmlns:xlink="http://www.w3.org/1999/xlink">
<symbol viewBox="0 0 16 18" id="add" xmlns="http://www.w3.org/2000/svg">
<path d="M15.0313 4.78125C15.125 4.875 15.2188 4.99554 15.3125 5.14286H10.5714V0.401786C10.7188 0.495536 10.8393 0.589286 10.933 0.683036L15.0313 4.78125ZM10.25 6.42857H15.7143V17.0357C15.7143 17.3036 15.6205 17.5312 15.433 17.7188C15.2455 17.9062 15.0179 18 14.75 18H1.25001C0.982149 18 0.754471 17.9062 0.566971 17.7188C0.379471 17.5312 0.285721 17.3036 0.285721 17.0357V0.964286C0.285721 0.696429 0.379471 0.46875 0.566971 0.28125C0.754471 0.09375 0.982149 0 1.25001 0H9.28572V5.46429C9.28572 5.73214 9.37947 5.95982 9.56697 6.14732C9.75447 6.33482 9.98215 6.42857 10.25 6.42857ZM11.8571 13.8214V13.1786C11.8571 13.0848 11.827 13.0078 11.7667 12.9475C11.7065 12.8873 11.6295 12.8571 11.5357 12.8571H4.46429C4.37054 12.8571 4.29353 12.8873 4.23327 12.9475C4.173 13.0078 4.14286 13.0848 4.14286 13.1786V13.8214C4.14286 13.9152 4.173 13.9922 4.23327 14.0525C4.29353 14.1127 4.37054 14.1429 4.46429 14.1429H11.5357C11.6295 14.1429 11.7065 14.1127 11.7667 14.0525C11.827 13.9922 11.8571 13.9152 11.8571 13.8214ZM11.8571 11.25V10.6071C11.8571 10.5134 11.827 10.4364 11.7667 10.3761C11.7065 10.3158 11.6295 10.2857 11.5357 10.2857H4.46429C4.37054 10.2857 4.29353 10.3158 4.23327 10.3761C4.173 10.4364 4.14286 10.5134 4.14286 10.6071V11.25C4.14286 11.3438 4.173 11.4208 4.23327 11.481C4.29353 11.5413 4.37054 11.5714 4.46429 11.5714H11.5357C11.6295 11.5714 11.7065 11.5413 11.7667 11.481C11.827 11.4208 11.8571 11.3438 11.8571 11.25ZM11.8571 8.67857V8.03571C11.8571 7.94196 11.827 7.86496 11.7667 7.80469C11.7065 7.74442 11.6295 7.71429 11.5357 7.71429H4.46429C4.37054 7.71429 4.29353 7.74442 4.23327 7.80469C4.173 7.86496 4.14286 7.94196 4.14286 8.03571V8.67857C4.14286 8.77232 4.173 8.84933 4.23327 8.9096C4.29353 8.96987 4.37054 9 4.46429 9H11.5357C11.6295 9 11.7065 8.96987 11.7667 8.9096C11.827 8.84933 11.8571 8.77232 11.8571 8.67857Z"/>
</symbol>
<symbol viewBox="0 0 21 16" id="arrow" xmlns="http://www.w3.org/2000/svg">
<path d="M0.292893 7.29289C-0.0976314 7.68342 -0.0976315 8.31658 0.292892 8.7071L6.65685 15.0711C7.04738 15.4616 7.68054 15.4616 8.07107 15.0711C8.46159 14.6805 8.46159 14.0474 8.07107 13.6569L2.41421 8L8.07107 2.34314C8.46159 1.95262 8.46159 1.31946 8.07107 0.928931C7.68054 0.538407 7.04738 0.538407 6.65686 0.928931L0.292893 7.29289ZM21 7L1 7L1 9L21 9L21 7Z"/>
</symbol>
<symbol viewBox="0 0 10 21" id="facebook" xmlns="http://www.w3.org/2000/svg">
<path d="M2.55277 20.5746V10.9204H0V7.44441H2.55277V4.47548C2.55277 2.14247 4.0607 0 7.53529 0C8.9421 0 9.98237 0.134866 9.98237 0.134866L9.9004 3.38083C9.9004 3.38083 8.83949 3.3705 7.68178 3.3705C6.42879 3.3705 6.22804 3.94793 6.22804 4.90631V7.44441H10L9.83588 10.9204H6.22804V20.5746H2.55277Z"/>
</symbol>
<symbol viewBox="0 0 20 20" id="instagram" xmlns="http://www.w3.org/2000/svg">
<path d="M18.9469 6.305C18.9369 5.54762 18.7951 4.79777 18.5279 4.089C18.2963 3.49115 17.9425 2.9482 17.4891 2.49483C17.0358 2.04146 16.4928 1.68765 15.8949 1.456C15.1953 1.19336 14.4561 1.05134 13.7089 1.036C12.7469 0.992999 12.4419 0.980999 9.99995 0.980999C7.55795 0.980999 7.24495 0.980999 6.28995 1.036C5.54311 1.05145 4.8043 1.19347 4.10495 1.456C3.50701 1.68749 2.96397 2.04124 2.51058 2.49463C2.05719 2.94802 1.70344 3.49106 1.47195 4.089C1.20878 4.78813 1.06707 5.52711 1.05295 6.274C1.00995 7.237 0.996948 7.542 0.996948 9.984C0.996948 12.426 0.996948 12.738 1.05295 13.694C1.06795 14.442 1.20895 15.18 1.47195 15.881C1.70383 16.4788 2.05784 17.0216 2.51138 17.4748C2.96492 17.928 3.50801 18.2816 4.10595 18.513C4.80338 18.7862 5.54232 18.9384 6.29095 18.963C7.25395 19.006 7.55895 19.019 10.0009 19.019C12.4429 19.019 12.7559 19.019 13.7109 18.963C14.4581 18.9483 15.1973 18.8066 15.8969 18.544C16.4946 18.3121 17.0375 17.9582 17.4908 17.5048C17.9441 17.0515 18.298 16.5087 18.5299 15.911C18.7929 15.211 18.9339 14.473 18.9489 13.724C18.9919 12.762 19.0049 12.457 19.0049 10.014C19.0029 7.572 19.0029 7.262 18.9469 6.305ZM9.99395 14.602C7.43995 14.602 5.37095 12.533 5.37095 9.979C5.37095 7.425 7.43995 5.356 9.99395 5.356C11.22 5.356 12.3959 5.84306 13.2629 6.71004C14.1299 7.57703 14.6169 8.7529 14.6169 9.979C14.6169 11.2051 14.1299 12.381 13.2629 13.248C12.3959 14.1149 11.22 14.602 9.99395 14.602ZM14.8009 6.263C14.6593 6.26313 14.5191 6.23534 14.3883 6.18121C14.2574 6.12708 14.1385 6.04768 14.0384 5.94755C13.9383 5.84743 13.8589 5.72854 13.8047 5.59769C13.7506 5.46684 13.7228 5.3266 13.7229 5.185C13.7229 5.0435 13.7508 4.90339 13.805 4.77266C13.8591 4.64193 13.9385 4.52315 14.0385 4.42309C14.1386 4.32304 14.2574 4.24367 14.3881 4.18952C14.5188 4.13537 14.6589 4.1075 14.8004 4.1075C14.9419 4.1075 15.0821 4.13537 15.2128 4.18952C15.3435 4.24367 15.4623 4.32304 15.5624 4.42309C15.6624 4.52315 15.7418 4.64193 15.7959 4.77266C15.8501 4.90339 15.8779 5.0435 15.8779 5.185C15.8779 5.781 15.3959 6.263 14.8009 6.263Z"/>
<path d="M9.99397 12.982C11.6525 12.982 12.997 11.6375 12.997 9.979C12.997 8.32049 11.6525 6.976 9.99397 6.976C8.33546 6.976 6.99097 8.32049 6.99097 9.979C6.99097 11.6375 8.33546 12.982 9.99397 12.982Z"/>
</symbol>
<symbol viewBox="0 0 14 22" id="phone" xmlns="http://www.w3.org/2000/svg">
<path d="M10.6667 0.916668H3.33337C1.81629 0.916668 0.583374 2.14958 0.583374 3.66667V18.3333C0.583374 19.8504 1.81629 21.0833 3.33337 21.0833H10.6667C12.1838 21.0833 13.4167 19.8504 13.4167 18.3333V3.66667C13.4167 2.14958 12.1838 0.916668 10.6667 0.916668ZM8.83337 19.25H5.16671V18.3333H8.83337V19.25ZM11.8125 16.5H2.18754V3.66667H11.8125V16.5Z"/>
</symbol>
<symbol viewBox="0 0 18 18" id="present" xmlns="http://www.w3.org/2000/svg">
<path d="M3.375 2.8125C3.375 2.06658 3.67132 1.35121 4.19876 0.823762C4.72621 0.296316 5.44158 0 6.1875 0C6.93342 0 7.64879 0.296316 8.17624 0.823762C8.70368 1.35121 9 2.06658 9 2.8125C9 2.06658 9.29632 1.35121 9.82376 0.823762C10.3512 0.296316 11.0666 0 11.8125 0C12.5584 0 13.2738 0.296316 13.8012 0.823762C14.3287 1.35121 14.625 2.06658 14.625 2.8125V2.81925C14.625 2.898 14.625 3.123 14.5822 3.375H16.875C17.1734 3.375 17.4595 3.49353 17.6705 3.7045C17.8815 3.91548 18 4.20163 18 4.5V5.625C18 5.92337 17.8815 6.20952 17.6705 6.4205C17.4595 6.63147 17.1734 6.75 16.875 6.75H1.125C0.826631 6.75 0.540483 6.63147 0.329505 6.4205C0.118526 6.20952 0 5.92337 0 5.625V4.5C0 4.20163 0.118526 3.91548 0.329505 3.7045C0.540483 3.49353 0.826631 3.375 1.125 3.375H3.41775C3.38804 3.19127 3.37374 3.00537 3.375 2.81925V2.8125ZM4.5765 3.375H7.875V2.8125C7.875 2.59089 7.83135 2.37146 7.74655 2.16672C7.66174 1.96198 7.53744 1.77596 7.38074 1.61926C7.22404 1.46256 7.03802 1.33826 6.83328 1.25345C6.62854 1.16865 6.40911 1.125 6.1875 1.125C5.96589 1.125 5.74646 1.16865 5.54172 1.25345C5.33698 1.33826 5.15096 1.46256 4.99426 1.61926C4.83756 1.77596 4.71326 1.96198 4.62845 2.16672C4.54365 2.37146 4.5 2.59089 4.5 2.8125C4.5 2.90812 4.50225 3.12075 4.55062 3.29625C4.55738 3.32308 4.56603 3.34939 4.5765 3.375ZM10.125 3.375H13.4235C13.4338 3.34935 13.4425 3.32304 13.4494 3.29625C13.4978 3.12075 13.5 2.90812 13.5 2.8125C13.5 2.36495 13.3222 1.93572 13.0057 1.61926C12.6893 1.30279 12.2601 1.125 11.8125 1.125C11.3649 1.125 10.9357 1.30279 10.6193 1.61926C10.3028 1.93572 10.125 2.36495 10.125 2.8125V3.375ZM16.875 7.875V16.3125C16.875 16.7601 16.6972 17.1893 16.3807 17.5057C16.0643 17.8222 15.6351 18 15.1875 18H10.125V7.875H16.875ZM2.8125 18C2.36495 18 1.93572 17.8222 1.61926 17.5057C1.30279 17.1893 1.125 16.7601 1.125 16.3125V7.875H7.875V18H2.8125Z"/>
</symbol></svg>